# xmcd
#
# Track frame offsets: 
#        150
#        17097
#        32982
#        47005
#        69167
#        83962
#        94125
#        112487
#        126097
#        147747
#        163940
#        176912
#        193620
#        212220
#        230025
#        245935
#
# Disc length: 3422 seconds
#
# Revision: 5
# Processed by: cddbd v1.5.2PL0 Copyright (c) Steve Scherf et al.
# Submitted via: ExactAudioCopy v0.95b4
#
DISCID=fd0d5c10
DTITLE=Campbelljohn, John - Hook Slide and Sinker
DYEAR=1998
DGENRE=Blues
TTITLE0=The world is crazy
TTITLE1=Johnny rock 'n' roll
TTITLE2=I wanna get up
TTITLE3=The court of love
TTITLE4=Martha Mae
TTITLE5=Wife and family
TTITLE6=Phone booth
TTITLE7=Sunny sky slide
TTITLE8=Slow down
TTITLE9=Heart like a stone
TTITLE10=Ready for a riot
TTITLE11=Non-conformist blues
TTITLE12=Baby bloomer blues
TTITLE13=Don't you burn your bridges
TTITLE14=Don't let the drinkin' do the thinkin'
TTITLE15=Pretty Paula Doy
EXTD=
EXTT0=
EXTT1=
EXTT2=
EXTT3=
EXTT4=
EXTT5=
EXTT6=
EXTT7=
EXTT8=
EXTT9=
EXTT10=
EXTT11=
EXTT12=
EXTT13=
EXTT14=
EXTT15=
PLAYORDER=
